<?xml version="1.0" encoding="UTF-8"?>
<svg viewBox="0 0 589.4364 589.4364" xmlns="http://www.w3.org/2000/svg">
 <defs>
  <radialGradient id="a" cx="-147.14" cy="580.04" r="15.893" gradientTransform="matrix(3.6543 -.14563 .3289 4.9433 200.27 -2307.1)" gradientUnits="userSpaceOnUse">
   <stop stop-color="#fff" offset="0"/>
   <stop stop-opacity="0" offset="1"/>
  </radialGradient>
 </defs>
 <path transform="matrix(4.7829 0 0 4.7829 -763.37 -346.83)" d="m282.84 134.13c0 34.031-27.588 61.619-61.619 61.619s-61.619-27.588-61.619-61.619 27.588-61.619 61.619-61.619 61.619 27.588 61.619 61.619z" fill="#a00"/>
 <g transform="matrix(8.3749 0 0 8.3749 -5250.6 -1896.6)">
  <path d="m650.58633,267.02553c-.34216,0-.62046.30233-.62046.68251 0,.0594.008.12079.0207.17579v11.7163c0,1.09289.66282,1.97513 1.4891,1.97513h21.35407c.82627,0 1.48909-.88224 1.48909-1.97513v-11.7163c.002-.0247 0-.0469 0-.0724 0-.38018-.2783-.69286-.62045-.69285s-.62046.31266-.62046.69285c0,.0696.0137.13312.031.19648v10.11344c0,1.05938-.60067,1.91308-1.34432,1.91308h-19.21349c-.74366,1e-005-1.34432-.8537-1.34432-1.91308v-10.23754h-.0207c.0127-.055.0207-.11639.0207-.17579 0-.38018-.27831-.68251-.62046-.68251z"/>
  <g transform="matrix(.33091 0 0 .33091 707.82 66.661)">
   <path d="m-138.8 523.79h1.8785a28.346 28.346 0 0 1 28.346 28.346v52.892a28.346 28.346 0 0 1 -28.346 28.346h-1.8785a28.346 28.346 0 0 1 -28.346 -28.346v-52.892a28.346 28.346 0 0 1 28.346 -28.346"/>
   <path d="m-140.89 527.58a20.536 21.26 0 0 1 20.536 21.26v60.994a20.536 21.26 0 0 1 -20.536 21.26 20.536 21.26 0 0 1 -20.536 -21.26v-60.994a20.536 21.26 0 0 1 20.536 -21.26" fill="url(#a)"/>
   <g transform="translate(-70.714 -2.8571)">
    <path transform="matrix(.72222 0 0 .72222 -24.413 173.23)" d="m-84.286 582.01c0 1.9724-1.4391 3.5714-3.2143 3.5714s-3.2143-1.599-3.2143-3.5714 1.4391-3.5714 3.2143-3.5714 3.2143 1.599 3.2143 3.5714z"/>
    <path transform="matrix(.72222 0 0 .72222 -24.413 165.63)" d="m-84.286 582.01c0 1.9724-1.4391 3.5714-3.2143 3.5714s-3.2143-1.599-3.2143-3.5714 1.4391-3.5714 3.2143-3.5714 3.2143 1.599 3.2143 3.5714z"/>
    <path transform="matrix(.72222 0 0 .72222 -24.413 158.03)" d="m-84.286 582.01c0 1.9724-1.4391 3.5714-3.2143 3.5714s-3.2143-1.599-3.2143-3.5714 1.4391-3.5714 3.2143-3.5714 3.2143 1.599 3.2143 3.5714z"/>
    <path transform="matrix(.72222 0 0 .72222 -24.413 150.43)" d="m-84.286 582.01c0 1.9724-1.4391 3.5714-3.2143 3.5714s-3.2143-1.599-3.2143-3.5714 1.4391-3.5714 3.2143-3.5714 3.2143 1.599 3.2143 3.5714z"/>
    <path transform="matrix(.72222 0 0 .72222 -24.413 142.83)" d="m-84.286 582.01c0 1.9724-1.4391 3.5714-3.2143 3.5714s-3.2143-1.599-3.2143-3.5714 1.4391-3.5714 3.2143-3.5714 3.2143 1.599 3.2143 3.5714z"/>
    <path transform="matrix(.72222 0 0 .72222 -24.413 135.23)" d="m-84.286 582.01c0 1.9724-1.4391 3.5714-3.2143 3.5714s-3.2143-1.599-3.2143-3.5714 1.4391-3.5714 3.2143-3.5714 3.2143 1.599 3.2143 3.5714z"/>
    <path transform="matrix(.72222 0 0 .72222 -24.413 127.23)" d="m-84.286 582.01c0 1.9724-1.4391 3.5714-3.2143 3.5714s-3.2143-1.599-3.2143-3.5714 1.4391-3.5714 3.2143-3.5714 3.2143 1.599 3.2143 3.5714z"/>
    <path transform="matrix(.72222 0 0 .72222 -24.413 119.23)" d="m-84.286 582.01c0 1.9724-1.4391 3.5714-3.2143 3.5714s-3.2143-1.599-3.2143-3.5714 1.4391-3.5714 3.2143-3.5714 3.2143 1.599 3.2143 3.5714z"/>
    <path transform="matrix(.72222 0 0 .72222 -12.413 173.23)" d="m-84.286 582.01c0 1.9724-1.4391 3.5714-3.2143 3.5714s-3.2143-1.599-3.2143-3.5714 1.4391-3.5714 3.2143-3.5714 3.2143 1.599 3.2143 3.5714z"/>
    <path transform="matrix(.72222 0 0 .72222 -12.413 165.63)" d="m-84.286 582.01c0 1.9724-1.4391 3.5714-3.2143 3.5714s-3.2143-1.599-3.2143-3.5714 1.4391-3.5714 3.2143-3.5714 3.2143 1.599 3.2143 3.5714z"/>
    <path transform="matrix(.72222 0 0 .72222 -12.413 158.03)" d="m-84.286 582.01c0 1.9724-1.4391 3.5714-3.2143 3.5714s-3.2143-1.599-3.2143-3.5714 1.4391-3.5714 3.2143-3.5714 3.2143 1.599 3.2143 3.5714z"/>
    <path transform="matrix(.72222 0 0 .72222 -12.413 150.43)" d="m-84.286 582.01c0 1.9724-1.4391 3.5714-3.2143 3.5714s-3.2143-1.599-3.2143-3.5714 1.4391-3.5714 3.2143-3.5714 3.2143 1.599 3.2143 3.5714z"/>
    <path transform="matrix(.72222 0 0 .72222 -12.413 142.83)" d="m-84.286 582.01c0 1.9724-1.4391 3.5714-3.2143 3.5714s-3.2143-1.599-3.2143-3.5714 1.4391-3.5714 3.2143-3.5714 3.2143 1.599 3.2143 3.5714z"/>
    <path transform="matrix(.72222 0 0 .72222 -12.413 135.23)" d="m-84.286 582.01c0 1.9724-1.4391 3.5714-3.2143 3.5714s-3.2143-1.599-3.2143-3.5714 1.4391-3.5714 3.2143-3.5714 3.2143 1.599 3.2143 3.5714z"/>
    <path transform="matrix(.72222 0 0 .72222 -12.413 127.23)" d="m-84.286 582.01c0 1.9724-1.4391 3.5714-3.2143 3.5714s-3.2143-1.599-3.2143-3.5714 1.4391-3.5714 3.2143-3.5714 3.2143 1.599 3.2143 3.5714z"/>
    <path transform="matrix(.72222 0 0 .72222 -12.413 119.23)" d="m-84.286 582.01c0 1.9724-1.4391 3.5714-3.2143 3.5714s-3.2143-1.599-3.2143-3.5714 1.4391-3.5714 3.2143-3.5714 3.2143 1.599 3.2143 3.5714z"/>
    <path transform="matrix(.72222 0 0 .72222 -18.377 176.73)" d="m-84.286 582.01c0 1.9724-1.4391 3.5714-3.2143 3.5714s-3.2143-1.599-3.2143-3.5714 1.4391-3.5714 3.2143-3.5714 3.2143 1.599 3.2143 3.5714z"/>
    <path transform="matrix(.72222 0 0 .72222 -18.448 169.03)" d="m-84.286 582.01c0 1.9724-1.4391 3.5714-3.2143 3.5714s-3.2143-1.599-3.2143-3.5714 1.4391-3.5714 3.2143-3.5714 3.2143 1.599 3.2143 3.5714z"/>
    <path transform="matrix(.72222 0 0 .72222 -18.448 161.33)" d="m-84.286 582.01c0 1.9724-1.4391 3.5714-3.2143 3.5714s-3.2143-1.599-3.2143-3.5714 1.4391-3.5714 3.2143-3.5714 3.2143 1.599 3.2143 3.5714z"/>
    <path transform="matrix(.72222 0 0 .72222 -18.448 153.62)" d="m-84.286 582.01c0 1.9724-1.4391 3.5714-3.2143 3.5714s-3.2143-1.599-3.2143-3.5714 1.4391-3.5714 3.2143-3.5714 3.2143 1.599 3.2143 3.5714z"/>
    <path transform="matrix(.72222 0 0 .72222 -18.448 145.92)" d="m-84.286 582.01c0 1.9724-1.4391 3.5714-3.2143 3.5714s-3.2143-1.599-3.2143-3.5714 1.4391-3.5714 3.2143-3.5714 3.2143 1.599 3.2143 3.5714z"/>
    <path transform="matrix(.72222 0 0 .72222 -18.448 138.22)" d="m-84.286 582.01c0 1.9724-1.4391 3.5714-3.2143 3.5714s-3.2143-1.599-3.2143-3.5714 1.4391-3.5714 3.2143-3.5714 3.2143 1.599 3.2143 3.5714z"/>
    <path transform="matrix(.72222 0 0 .72222 -18.448 130.52)" d="m-84.286 582.01c0 1.9724-1.4391 3.5714-3.2143 3.5714s-3.2143-1.599-3.2143-3.5714 1.4391-3.5714 3.2143-3.5714 3.2143 1.599 3.2143 3.5714z"/>
    <path transform="matrix(.72222 0 0 .72222 -18.448 122.52)" d="m-84.286 582.01c0 1.9724-1.4391 3.5714-3.2143 3.5714s-3.2143-1.599-3.2143-3.5714 1.4391-3.5714 3.2143-3.5714 3.2143 1.599 3.2143 3.5714z"/>
    <path transform="matrix(.72222 0 0 .72222 -18.448 114.52)" d="m-84.286 582.01c0 1.9724-1.4391 3.5714-3.2143 3.5714s-3.2143-1.599-3.2143-3.5714 1.4391-3.5714 3.2143-3.5714 3.2143 1.599 3.2143 3.5714z"/>
    <path transform="matrix(.72222 0 0 .72222 -6.377 176.73)" d="m-84.286 582.01c0 1.9724-1.4391 3.5714-3.2143 3.5714s-3.2143-1.599-3.2143-3.5714 1.4391-3.5714 3.2143-3.5714 3.2143 1.599 3.2143 3.5714z"/>
    <path transform="matrix(.72222 0 0 .72222 -6.4484 169.03)" d="m-84.286 582.01c0 1.9724-1.4391 3.5714-3.2143 3.5714s-3.2143-1.599-3.2143-3.5714 1.4391-3.5714 3.2143-3.5714 3.2143 1.599 3.2143 3.5714z"/>
    <path transform="matrix(.72222 0 0 .72222 -6.4484 161.33)" d="m-84.286 582.01c0 1.9724-1.4391 3.5714-3.2143 3.5714s-3.2143-1.599-3.2143-3.5714 1.4391-3.5714 3.2143-3.5714 3.2143 1.599 3.2143 3.5714z"/>
    <path transform="matrix(.72222 0 0 .72222 -6.4484 153.62)" d="m-84.286 582.01c0 1.9724-1.4391 3.5714-3.2143 3.5714s-3.2143-1.599-3.2143-3.5714 1.4391-3.5714 3.2143-3.5714 3.2143 1.599 3.2143 3.5714z"/>
    <path transform="matrix(.72222 0 0 .72222 -6.4484 145.92)" d="m-84.286 582.01c0 1.9724-1.4391 3.5714-3.2143 3.5714s-3.2143-1.599-3.2143-3.5714 1.4391-3.5714 3.2143-3.5714 3.2143 1.599 3.2143 3.5714z"/>
    <path transform="matrix(.72222 0 0 .72222 -6.4484 138.22)" d="m-84.286 582.01c0 1.9724-1.4391 3.5714-3.2143 3.5714s-3.2143-1.599-3.2143-3.5714 1.4391-3.5714 3.2143-3.5714 3.2143 1.599 3.2143 3.5714z"/>
    <path transform="matrix(.72222 0 0 .72222 -6.4484 130.52)" d="m-84.286 582.01c0 1.9724-1.4391 3.5714-3.2143 3.5714s-3.2143-1.599-3.2143-3.5714 1.4391-3.5714 3.2143-3.5714 3.2143 1.599 3.2143 3.5714z"/>
    <path transform="matrix(.72222 0 0 .72222 -6.4484 122.52)" d="m-84.286 582.01c0 1.9724-1.4391 3.5714-3.2143 3.5714s-3.2143-1.599-3.2143-3.5714 1.4391-3.5714 3.2143-3.5714 3.2143 1.599 3.2143 3.5714z"/>
    <path transform="matrix(.72222 0 0 .72222 -6.4484 114.52)" d="m-84.286 582.01c0 1.9724-1.4391 3.5714-3.2143 3.5714s-3.2143-1.599-3.2143-3.5714 1.4391-3.5714 3.2143-3.5714 3.2143 1.599 3.2143 3.5714z"/>
   </g>
   <path transform="matrix(.72222 0 0 .72222 -82.877 108.45)" d="m-84.286 582.01c0 1.9724-1.4391 3.5714-3.2143 3.5714s-3.2143-1.599-3.2143-3.5714 1.4391-3.5714 3.2143-3.5714 3.2143 1.599 3.2143 3.5714z"/>
   <path transform="matrix(.72222 0 0 .72222 -65.591 172.8)" d="m-84.286 582.01c0 1.9724-1.4391 3.5714-3.2143 3.5714s-3.2143-1.599-3.2143-3.5714 1.4391-3.5714 3.2143-3.5714 3.2143 1.599 3.2143 3.5714z"/>
   <path transform="matrix(.72222 0 0 .72222 -65.663 165.1)" d="m-84.286 582.01c0 1.9724-1.4391 3.5714-3.2143 3.5714s-3.2143-1.599-3.2143-3.5714 1.4391-3.5714 3.2143-3.5714 3.2143 1.599 3.2143 3.5714z"/>
   <path transform="matrix(.72222 0 0 .72222 -65.663 157.4)" d="m-84.286 582.01c0 1.9724-1.4391 3.5714-3.2143 3.5714s-3.2143-1.599-3.2143-3.5714 1.4391-3.5714 3.2143-3.5714 3.2143 1.599 3.2143 3.5714z"/>
   <path transform="matrix(.72222 0 0 .72222 -65.663 149.7)" d="m-84.286 582.01c0 1.9724-1.4391 3.5714-3.2143 3.5714s-3.2143-1.599-3.2143-3.5714 1.4391-3.5714 3.2143-3.5714 3.2143 1.599 3.2143 3.5714z"/>
   <path transform="matrix(.72222 0 0 .72222 -65.663 141.99)" d="m-84.286 582.01c0 1.9724-1.4391 3.5714-3.2143 3.5714s-3.2143-1.599-3.2143-3.5714 1.4391-3.5714 3.2143-3.5714 3.2143 1.599 3.2143 3.5714z"/>
   <path transform="matrix(.72222 0 0 .72222 -65.663 134.29)" d="m-84.286 582.01c0 1.9724-1.4391 3.5714-3.2143 3.5714s-3.2143-1.599-3.2143-3.5714 1.4391-3.5714 3.2143-3.5714 3.2143 1.599 3.2143 3.5714z"/>
   <path transform="matrix(.72222 0 0 .72222 -65.663 126.59)" d="m-84.286 582.01c0 1.9724-1.4391 3.5714-3.2143 3.5714s-3.2143-1.599-3.2143-3.5714 1.4391-3.5714 3.2143-3.5714 3.2143 1.599 3.2143 3.5714z"/>
   <path transform="matrix(.72222 0 0 .72222 -65.663 118.59)" d="m-84.286 582.01c0 1.9724-1.4391 3.5714-3.2143 3.5714s-3.2143-1.599-3.2143-3.5714 1.4391-3.5714 3.2143-3.5714 3.2143 1.599 3.2143 3.5714z"/>
   <path transform="matrix(.72222 0 0 .72222 -65.663 110.59)" d="m-84.286 582.01c0 1.9724-1.4391 3.5714-3.2143 3.5714s-3.2143-1.599-3.2143-3.5714 1.4391-3.5714 3.2143-3.5714 3.2143 1.599 3.2143 3.5714z"/>
   <path transform="matrix(.72222 0 0 .72222 -71.448 170.3)" d="m-84.286 582.01c0 1.9724-1.4391 3.5714-3.2143 3.5714s-3.2143-1.599-3.2143-3.5714 1.4391-3.5714 3.2143-3.5714 3.2143 1.599 3.2143 3.5714z"/>
   <path transform="matrix(.72222 0 0 .72222 -71.52 162.6)" d="m-84.286 582.01c0 1.9724-1.4391 3.5714-3.2143 3.5714s-3.2143-1.599-3.2143-3.5714 1.4391-3.5714 3.2143-3.5714 3.2143 1.599 3.2143 3.5714z"/>
   <path transform="matrix(.72222 0 0 .72222 -71.52 154.9)" d="m-84.286 582.01c0 1.9724-1.4391 3.5714-3.2143 3.5714s-3.2143-1.599-3.2143-3.5714 1.4391-3.5714 3.2143-3.5714 3.2143 1.599 3.2143 3.5714z"/>
   <path transform="matrix(.72222 0 0 .72222 -71.52 147.2)" d="m-84.286 582.01c0 1.9724-1.4391 3.5714-3.2143 3.5714s-3.2143-1.599-3.2143-3.5714 1.4391-3.5714 3.2143-3.5714 3.2143 1.599 3.2143 3.5714z"/>
   <path transform="matrix(.72222 0 0 .72222 -71.52 139.49)" d="m-84.286 582.01c0 1.9724-1.4391 3.5714-3.2143 3.5714s-3.2143-1.599-3.2143-3.5714 1.4391-3.5714 3.2143-3.5714 3.2143 1.599 3.2143 3.5714z"/>
   <path transform="matrix(.72222 0 0 .72222 -71.52 131.79)" d="m-84.286 582.01c0 1.9724-1.4391 3.5714-3.2143 3.5714s-3.2143-1.599-3.2143-3.5714 1.4391-3.5714 3.2143-3.5714 3.2143 1.599 3.2143 3.5714z"/>
   <path transform="matrix(.72222 0 0 .72222 -71.52 124.09)" d="m-84.286 582.01c0 1.9724-1.4391 3.5714-3.2143 3.5714s-3.2143-1.599-3.2143-3.5714 1.4391-3.5714 3.2143-3.5714 3.2143 1.599 3.2143 3.5714z"/>
   <path transform="matrix(.72222 0 0 .72222 -71.52 116.09)" d="m-84.286 582.01c0 1.9724-1.4391 3.5714-3.2143 3.5714s-3.2143-1.599-3.2143-3.5714 1.4391-3.5714 3.2143-3.5714 3.2143 1.599 3.2143 3.5714z"/>
   <path transform="matrix(.72222 0 0 .72222 -71.52 108.09)" d="m-84.286 582.01c0 1.9724-1.4391 3.5714-3.2143 3.5714s-3.2143-1.599-3.2143-3.5714 1.4391-3.5714 3.2143-3.5714 3.2143 1.599 3.2143 3.5714z"/>
   <path d="m-164.69 598.63h53.302a4.7504 1.9369 0 0 1 4.7504 1.9369 4.7504 1.9369 0 0 1 -4.7504 1.9369h-53.302a4.7504 1.9369 0 0 1 -4.7504 -1.9369 4.7504 1.9369 0 0 1 4.7504 -1.9369" fill="#b3b3b3" stroke="#000" stroke-width=".69755"/>
   <path transform="matrix(.72222 0 0 .72222 -59.127 169.66)" d="m-84.286 582.01c0 1.9724-1.4391 3.5714-3.2143 3.5714s-3.2143-1.599-3.2143-3.5714 1.4391-3.5714 3.2143-3.5714 3.2143 1.599 3.2143 3.5714z"/>
   <path transform="matrix(.72222 0 0 .72222 -59.127 162.06)" d="m-84.286 582.01c0 1.9724-1.4391 3.5714-3.2143 3.5714s-3.2143-1.599-3.2143-3.5714 1.4391-3.5714 3.2143-3.5714 3.2143 1.599 3.2143 3.5714z"/>
   <path transform="matrix(.72222 0 0 .72222 -59.127 154.46)" d="m-84.286 582.01c0 1.9724-1.4391 3.5714-3.2143 3.5714s-3.2143-1.599-3.2143-3.5714 1.4391-3.5714 3.2143-3.5714 3.2143 1.599 3.2143 3.5714z"/>
   <path transform="matrix(.72222 0 0 .72222 -59.127 146.86)" d="m-84.286 582.01c0 1.9724-1.4391 3.5714-3.2143 3.5714s-3.2143-1.599-3.2143-3.5714 1.4391-3.5714 3.2143-3.5714 3.2143 1.599 3.2143 3.5714z"/>
   <path transform="matrix(.72222 0 0 .72222 -59.127 139.26)" d="m-84.286 582.01c0 1.9724-1.4391 3.5714-3.2143 3.5714s-3.2143-1.599-3.2143-3.5714 1.4391-3.5714 3.2143-3.5714 3.2143 1.599 3.2143 3.5714z"/>
   <path transform="matrix(.72222 0 0 .72222 -59.127 131.66)" d="m-84.286 582.01c0 1.9724-1.4391 3.5714-3.2143 3.5714s-3.2143-1.599-3.2143-3.5714 1.4391-3.5714 3.2143-3.5714 3.2143 1.599 3.2143 3.5714z"/>
   <path transform="matrix(.72222 0 0 .72222 -59.127 123.66)" d="m-84.286 582.01c0 1.9724-1.4391 3.5714-3.2143 3.5714s-3.2143-1.599-3.2143-3.5714 1.4391-3.5714 3.2143-3.5714 3.2143 1.599 3.2143 3.5714z"/>
   <path transform="matrix(.72222 0 0 .72222 -59.127 115.66)" d="m-84.286 582.01c0 1.9724-1.4391 3.5714-3.2143 3.5714s-3.2143-1.599-3.2143-3.5714 1.4391-3.5714 3.2143-3.5714 3.2143 1.599 3.2143 3.5714z"/>
   <path transform="matrix(.72222 0 0 .72222 -43.674 188.09)" d="m-84.286 582.01c0 1.9724-1.4391 3.5714-3.2143 3.5714s-3.2143-1.599-3.2143-3.5714 1.4391-3.5714 3.2143-3.5714 3.2143 1.599 3.2143 3.5714z"/>
   <path transform="matrix(.72222 0 0 .72222 -105.82 188.09)" d="m-84.286 582.01c0 1.9724-1.4391 3.5714-3.2143 3.5714s-3.2143-1.599-3.2143-3.5714 1.4391-3.5714 3.2143-3.5714 3.2143 1.599 3.2143 3.5714z"/>
   <path d="m-141.16 643.29h6.4492a4.2754 6.0905 0 0 1 4.2754 6.0905v38.89a4.2754 6.0905 0 0 1 -4.2754 6.0905h-6.4492a4.2754 6.0905 0 0 1 -4.2754 -6.0905v-38.89a4.2754 6.0905 0 0 1 4.2754 -6.0905"/>
  </g>
 </g>
</svg>
